<svg id="ico-id-cards-24" xmlns="http://www.w3.org/2000/svg" width="24" height="24" viewBox="0 0 24 24">
  <path id="Trazado_6459" data-name="Trazado 6459" d="M0,0H24V24H0Z" fill="rgba(0,0,0,0)"/>
  <path id="Trazado_6460" data-name="Trazado 6460" d="M19,3H15a2,2,0,0,0-2,2V17a4,4,0,0,0,8,0V5a2,2,0,0,0-2-2" fill="none" stroke="#282828" stroke-linecap="round" stroke-linejoin="round" stroke-width="2"/>
  <path id="Trazado_6461" data-name="Trazado 6461" d="M13,7.35l-2-2a2,2,0,0,0-2.828,0L5.344,8.178a2,2,0,0,0,0,2.828l9,9" fill="none" stroke="#282828" stroke-linecap="round" stroke-linejoin="round" stroke-width="2"/>
  <path id="Trazado_6462" data-name="Trazado 6462" d="M7.3,13H5a2,2,0,0,0-2,2v4a2,2,0,0,0,2,2H17" fill="none" stroke="#282828" stroke-linecap="round" stroke-linejoin="round" stroke-width="2"/>
  <line id="Línea_197" data-name="Línea 197" y2="0.01" transform="translate(17 17)" fill="none" stroke="#282828" stroke-linecap="round" stroke-linejoin="round" stroke-width="2"/>
</svg>
