<?xml version="1.0" standalone="no"?>
<!DOCTYPE svg PUBLIC "-//W3C//DTD SVG 20010904//EN"
 "http://www.w3.org/TR/2001/REC-SVG-20010904/DTD/svg10.dtd">
<svg version="1.0" xmlns="http://www.w3.org/2000/svg"
 width="52.000000pt" height="52.000000pt" viewBox="0 0 52.000000 52.000000"
 preserveAspectRatio="xMidYMid meet">
<g transform="translate(0.000000,52.000000) scale(0.100000,-0.100000)"
fill="currentColor" stroke="currentColor">
<path d="M250 490 c0 -16 5 -30 10 -30 6 0 10 14 10 30 0 17 -4 30 -10 30 -5
0 -10 -13 -10 -30z"/>
<path d="M56 462 c-3 -5 5 -19 18 -31 13 -13 26 -18 30 -13 3 5 -5 19 -18 31
-13 13 -26 18 -30 13z"/>
<path d="M431 446 c-13 -13 -18 -26 -13 -30 5 -3 19 5 31 18 13 13 18 26 13
30 -5 3 -19 -5 -31 -18z"/>
<path d="M0 260 c0 -5 13 -10 30 -10 17 0 30 5 30 10 0 6 -13 10 -30 10 -17 0
-30 -4 -30 -10z"/>
<path d="M460 260 c0 -5 14 -10 30 -10 17 0 30 5 30 10 0 6 -13 10 -30 10 -16
0 -30 -4 -30 -10z"/>
<path d="M71 86 c-13 -13 -18 -26 -13 -30 5 -3 19 5 31 18 13 13 18 26 13 30
-5 3 -19 -5 -31 -18z"/>
<path d="M416 102 c-3 -5 5 -19 18 -31 13 -13 26 -18 30 -13 3 5 -5 19 -18 31
-13 13 -26 18 -30 13z"/>
<path d="M250 30 c0 -17 5 -30 10 -30 6 0 10 13 10 30 0 17 -4 30 -10 30 -5 0
-10 -13 -10 -30z"/>
</g>
</svg>
