<svg id="ico-ux-people-24" xmlns="http://www.w3.org/2000/svg" width="24" height="24" viewBox="0 0 24 24">
  <path id="Trazado_7706" d="M0,0H24V24H0Z" fill="rgba(0,0,0,0)"/>
  <circle id="Elipse_359" cx="2" cy="2" r="2" transform="translate(5 3)" fill="rgba(0,0,0,0)" stroke="currentColor" stroke-linecap="round" stroke-linejoin="round" stroke-width="2"/>
  <path id="Trazado_7707" d="M5,22V17L4,16V12a1,1,0,0,1,1-1H9a1,1,0,0,1,1,1v4L9,17v5" fill="rgba(0,0,0,0)" stroke="currentColor" stroke-linecap="round" stroke-linejoin="round" stroke-width="2"/>
  <circle id="Elipse_360" cx="2" cy="2" r="2" transform="translate(15 3)" fill="rgba(0,0,0,0)" stroke="currentColor" stroke-linecap="round" stroke-linejoin="round" stroke-width="2"/>
  <path id="Trazado_7708" d="M15,22V18H13l2-6a1,1,0,0,1,1-1h2a1,1,0,0,1,1,1l2,6H19v4" fill="rgba(0,0,0,0)" stroke="currentColor" stroke-linecap="round" stroke-linejoin="round" stroke-width="2"/>
</svg>
