<svg id="ico-content-mgr-pdf-24" xmlns="http://www.w3.org/2000/svg" width="24" height="24" viewBox="0 0 24 24">
  <path id="Trazado_6268" d="M0,0H24V24H0Z" fill="rgba(0,0,0,0)"/>
  <path id="Trazado_6269" d="M14,3V7a1,1,0,0,0,1,1h4" fill="none" stroke="currentColor" stroke-linecap="round" stroke-linejoin="round" stroke-width="2"/>
  <path id="Trazado_6270" d="M17,21H7a2,2,0,0,1-2-2V5A2,2,0,0,1,7,3h7l5,5V19A2,2,0,0,1,17,21Z" fill="none" stroke="currentColor" stroke-linecap="round" stroke-linejoin="round" stroke-width="2"/>
  <path id="Trazado_6292" d="M3.708-1.815A2.218,2.218,0,0,1,3.321-.446,1.244,1.244,0,0,1,2.273.068a1.152,1.152,0,0,1-.906-.39V1.422H.379V-3.7H1.3l.034.362a1.161,1.161,0,0,1,.937-.431,1.252,1.252,0,0,1,1.063.506,2.278,2.278,0,0,1,.379,1.395Zm-.988-.072a1.455,1.455,0,0,0-.183-.8.6.6,0,0,0-.531-.28.647.647,0,0,0-.639.355v1.514a.658.658,0,0,0,.646.366Q2.721-.728,2.721-1.887Zm1.446.01a2.229,2.229,0,0,1,.388-1.377,1.259,1.259,0,0,1,1.061-.513,1.133,1.133,0,0,1,.892.4V-5.25H7.5V0H6.607L6.559-.393a1.162,1.162,0,0,1-.95.461A1.255,1.255,0,0,1,4.561-.446,2.3,2.3,0,0,1,4.167-1.876Zm.988.074a1.46,1.46,0,0,0,.181.8.59.59,0,0,0,.526.277.661.661,0,0,0,.646-.387V-2.577a.651.651,0,0,0-.639-.387Q5.154-2.963,5.154-1.8ZM8.535,0V-2.974h-.55V-3.7h.55v-.314a1.277,1.277,0,0,1,.357-.966,1.383,1.383,0,0,1,1-.344,2.309,2.309,0,0,1,.5.068l-.01.766a1.259,1.259,0,0,0-.3-.031q-.557,0-.557.523v.3h.735v.725H9.526V0Z" transform="translate(6.5 16)" fill="currentColor"/>
</svg>
