<svg id="ico-signature-64" xmlns="http://www.w3.org/2000/svg" width="64" height="64" viewBox="0 0 64 64">
  <path id="Trazado_8136" data-name="Trazado 8136" d="M0,0H64V64H0Z" fill="rgba(0,0,0,0)"/>
  <path id="Trazado_8137" data-name="Trazado 8137" d="M3,34q13.332-8,13.333-16c0-8-2.667-8-5.333-8s-5.419,2.893-5.333,8c.091,5.461,4.421,7.672,6.667,10.667,4,5.333,6.667,6.667,9.333,2.667a64.808,64.808,0,0,0,4-6.667Q29.667,34,36.333,34H43" transform="translate(5 16.667)" fill="rgba(0,0,0,0)" stroke="currentColor" stroke-linecap="round" stroke-linejoin="round" stroke-width="5"/>
  <path id="Trazado_8138" data-name="Trazado 8138" d="M26.667,40.333v-32A5.333,5.333,0,1,0,16,8.333v32l5.333,5.333Z" transform="translate(26.667 5)" fill="rgba(0,0,0,0)" stroke="currentColor" stroke-linecap="round" stroke-linejoin="round" stroke-width="5"/>
  <path id="Trazado_8139" data-name="Trazado 8139" d="M16,7H26.667" transform="translate(26.667 11.667)" fill="rgba(0,0,0,0)" stroke="currentColor" stroke-linecap="round" stroke-linejoin="round" stroke-width="5"/>
</svg> 
