<svg id="icoIA" xmlns="http://www.w3.org/2000/svg" width="24" height="24" viewBox="0 0 24 24">
  <path id="Trazado_8209" data-name="Trazado 8209" d="M0,0H24V24H0Z" fill="none"/>
  <path id="Trazado_8210" data-name="Trazado 8210" d="M11.217,19.384A3.5,3.5,0,0,0,18,18.167V13L12,9.65" transform="translate(0 0)" fill="none" stroke="currentColor" stroke-linecap="round" stroke-linejoin="round" stroke-width="2"/>
  <path id="Trazado_8211" data-name="Trazado 8211" d="M5.214,15.014A3.5,3.5,0,0,0,9.66,20.28L14,17.746V10.8" transform="translate(0)" fill="none" stroke="currentColor" stroke-linecap="round" stroke-linejoin="round" stroke-width="2"/>
  <path id="Trazado_8212" data-name="Trazado 8212" d="M6,7.63A3.394,3.394,0,0,0,2.466,9.319a3.474,3.474,0,0,0,1.271,4.745L8,16.578l6-3.348" transform="translate(0 0)" fill="none" stroke="currentColor" stroke-linecap="round" stroke-linejoin="round" stroke-width="2"/>
  <path id="Trazado_8213" data-name="Trazado 8213" d="M12.783,4.616A3.5,3.5,0,0,0,6,5.833V10.9l6,3.45" transform="translate(0 0)" fill="none" stroke="currentColor" stroke-linecap="round" stroke-linejoin="round" stroke-width="2"/>
  <path id="Trazado_8214" data-name="Trazado 8214" d="M18.786,8.986A3.5,3.5,0,0,0,14.34,3.72L10,6.254V13.2" transform="translate(0 0)" fill="none" stroke="currentColor" stroke-linecap="round" stroke-linejoin="round" stroke-width="2"/>
  <path id="Trazado_8215" data-name="Trazado 8215" d="M18,16.3a3.394,3.394,0,0,0,3.534-1.689,3.474,3.474,0,0,0-1.271-4.745L15.955,7.354,10,10.774" transform="translate(0 0)" fill="none" stroke="currentColor" stroke-linecap="round" stroke-linejoin="round" stroke-width="2"/>
</svg>
