<svg id="icoVimeo" xmlns="http://www.w3.org/2000/svg" width="24" height="24" viewBox="0 0 24 24">
  <path id="Trazado_8174" data-name="Trazado 8174" d="M0,0H24V24H0Z" fill="rgba(0,0,0,0)"/>
  <path id="Trazado_8175" data-name="Trazado 8175" d="M3,8.5l1,1S5.5,8.4,6,9s1.863,7.65,2.5,9c.556,1.184,1.978,2.89,4,1.5C14.5,18,20,14,21,8c.444-2.661-1-4-2.5-4A4.437,4.437,0,0,0,14,8c2.05-1.254,2.551,1,1.5,3s-2,3-2.5,3-.924-1.165-1.5-3.5C10.91,8.08,11,4,8.5,4S3,8.5,3,8.5Z" transform="translate(0 0)" fill="rgba(0,0,0,0)" stroke="currentColor" stroke-linecap="round" stroke-linejoin="round" stroke-width="2"/>
</svg>
