<svg id="pathSkeletonWizard" xmlns="http://www.w3.org/2000/svg" xmlns:xlink="http://www.w3.org/1999/xlink" width="90" height="150" viewBox="0 0 90 150">
  <defs>
    <clipPath id="clip-path">
      <rect id="background" width="90" height="150" rx="8" fill="#fbfbfb"/>
    </clipPath>
  </defs>
  <rect id="background-2" data-name="background" width="90" height="150" rx="8" fill="#f5f5f5"/>
  <g id="elements" clip-path="url(#clip-path)">
    <g id="Grupo_67608" data-name="Grupo 67608" transform="translate(-118 6)">
      <g id="_-----skeleton-wizard-view" data-name="-----skeleton-wizard-view" transform="translate(197)">
        <rect id="background-3" data-name="background" width="70" height="136" rx="4" fill="#3f51b5"/>
        <path id="Rect치ngulo_2185" data-name="Rect치ngulo 2185" d="M0,0H70a0,0,0,0,1,0,0V16a4,4,0,0,1-4,4H4a4,4,0,0,1-4-4V0A0,0,0,0,1,0,0Z" transform="translate(0 116)" fill="#fff"/>
        <ellipse id="Elipse_328" data-name="Elipse 328" cx="35" cy="16.5" rx="35" ry="16.5" transform="translate(0 100)" fill="#fff"/>
        <g id="_-----skeleton-icon" data-name="-----skeleton-icon" transform="translate(29 50)">
          <rect id="_---skeleton-icon" data-name="//---skeleton-icon" width="12" height="16" rx="3" fill="#f5f5f5"/>
        </g>
        <g id="_-----skeleton-text-regular" data-name="-----skeleton-text-regular" transform="translate(6 119)" opacity="0.58">
          <rect id="_---skeleton-text-regular" data-name="//---skeleton-text-regular" width="58" height="5" rx="2.5" fill="#f0f0f0"/>
        </g>
        <g id="_-----skeleton-text-regular-2" data-name="-----skeleton-text-regular" transform="translate(31 109)">
          <rect id="_---skeleton-text-regular-2" data-name="//---skeleton-text-regular" width="9" height="5" rx="2.5" fill="#f0f0f0"/>
        </g>
        <g id="Grupo_67615" data-name="Grupo 67615" transform="translate(-121 129)">
          <g id="_-----skeleton-text-regular-3" data-name="-----skeleton-text-regular" transform="translate(161)">
            <rect id="_---skeleton-text-regular-3" data-name="//---skeleton-text-regular" width="4" height="4" rx="2" fill="#f0f0f0"/>
          </g>
          <g id="_-----skeleton-text-regular-4" data-name="-----skeleton-text-regular" transform="translate(154)">
            <rect id="_---skeleton-text-regular-4" data-name="//---skeleton-text-regular" width="4" height="4" rx="2" fill="#f0f0f0"/>
          </g>
          <g id="_-----skeleton-text-regular-5" data-name="-----skeleton-text-regular" transform="translate(147)">
            <rect id="_---skeleton-text-regular-5" data-name="//---skeleton-text-regular" width="4" height="4" rx="2" fill="#f0f0f0"/>
          </g>
        </g>
      </g>
      <g id="_-----skeleton-wizard-view-2" data-name="-----skeleton-wizard-view" transform="translate(123)">
        <rect id="background-4" data-name="background" width="70" height="136" rx="4" fill="#3863d8"/>
        <path id="Rect치ngulo_2185-2" data-name="Rect치ngulo 2185" d="M0,0H70a0,0,0,0,1,0,0V16a4,4,0,0,1-4,4H4a4,4,0,0,1-4-4V0A0,0,0,0,1,0,0Z" transform="translate(0 116)" fill="#fff"/>
        <ellipse id="Elipse_328-2" data-name="Elipse 328" cx="35" cy="16.5" rx="35" ry="16.5" transform="translate(0 100)" fill="#fff"/>
        <g id="_-----skeleton-icon-2" data-name="-----skeleton-icon" transform="translate(29 50)">
          <rect id="_---skeleton-icon-2" data-name="//---skeleton-icon" width="12" height="16" rx="3" fill="#f5f5f5"/>
        </g>
        <g id="_-----skeleton-text-regular-6" data-name="-----skeleton-text-regular" transform="translate(6 119)" opacity="0.58">
          <rect id="_---skeleton-text-regular-6" data-name="//---skeleton-text-regular" width="58" height="5" rx="2.5" fill="#f0f0f0"/>
        </g>
        <g id="_-----skeleton-text-regular-7" data-name="-----skeleton-text-regular" transform="translate(31 109)">
          <rect id="_---skeleton-text-regular-7" data-name="//---skeleton-text-regular" width="9" height="5" rx="2.5" fill="#f0f0f0"/>
        </g>
        <g id="Grupo_67615-2" data-name="Grupo 67615" transform="translate(-121 129)">
          <g id="_-----skeleton-text-regular-8" data-name="-----skeleton-text-regular" transform="translate(161)">
            <rect id="_---skeleton-text-regular-8" data-name="//---skeleton-text-regular" width="4" height="4" rx="2" fill="#f0f0f0"/>
          </g>
          <g id="_-----skeleton-text-regular-9" data-name="-----skeleton-text-regular" transform="translate(154)">
            <rect id="_---skeleton-text-regular-9" data-name="//---skeleton-text-regular" width="4" height="4" rx="2" fill="#f0f0f0"/>
          </g>
          <g id="_-----skeleton-text-regular-10" data-name="-----skeleton-text-regular" transform="translate(147)">
            <rect id="_---skeleton-text-regular-10" data-name="//---skeleton-text-regular" width="4" height="4" rx="2" fill="#f0f0f0"/>
          </g>
        </g>
      </g>
    </g>
  </g>
</svg>
