<svg id="pathSkeletonInstagram" xmlns="http://www.w3.org/2000/svg" xmlns:xlink="http://www.w3.org/1999/xlink" width="90" height="150" viewBox="0 0 90 150">
  <defs>
    <clipPath id="clip-path">
      <rect id="background" width="90" height="150" rx="8" fill="#fbfbfb"/>
    </clipPath>
  </defs>
  <rect id="background-2" data-name="background" width="90" height="150" rx="8" fill="#f5f5f5"/>
  <g id="elements" clip-path="url(#clip-path)">
    <g id="Grupo_67608" data-name="Grupo 67608" transform="translate(5 -253)">
      <g id="_-----skeleton-wall-view" data-name="-----skeleton-wall-view" transform="translate(0 383)">
        <rect id="background-3" data-name="background" width="80" height="60" rx="4" fill="#fbfbfb"/>
        <path id="background-4" data-name="background" d="M4,0H76a4,4,0,0,1,4,4V40a0,0,0,0,1,0,0H0a0,0,0,0,1,0,0V4A4,4,0,0,1,4,0Z" fill="#2395f0"/>
        <g id="_-----skeleton-icon" data-name="-----skeleton-icon" transform="translate(34 12)">
          <rect id="_---skeleton-icon" data-name="//---skeleton-icon" width="12" height="16" rx="3" fill="#f5f5f5"/>
        </g>
        <g id="_-----skeleton-text-regular" data-name="-----skeleton-text-regular" transform="translate(6 51)">
          <rect id="_---skeleton-text-regular" data-name="//---skeleton-text-regular" width="68" height="5" rx="2.5" fill="#f0f0f0"/>
        </g>
        <g id="_-----skeleton-text-regular-2" data-name="-----skeleton-text-regular" transform="translate(6 43)">
          <rect id="_---skeleton-text-regular-2" data-name="//---skeleton-text-regular" width="19" height="5" rx="2.5" fill="#f0f0f0"/>
        </g>
      </g>
      <g id="_-----skeleton-wall-view-2" data-name="-----skeleton-wall-view" transform="translate(0 321)">
        <rect id="background-5" data-name="background" width="80" height="60" rx="4" fill="#fbfbfb"/>
        <path id="background-6" data-name="background" d="M4,0H76a4,4,0,0,1,4,4V40a0,0,0,0,1,0,0H0a0,0,0,0,1,0,0V4A4,4,0,0,1,4,0Z" fill="#07a7f1"/>
        <g id="_-----skeleton-icon-2" data-name="-----skeleton-icon" transform="translate(34 12)">
          <rect id="_---skeleton-icon-2" data-name="//---skeleton-icon" width="12" height="16" rx="3" fill="#f5f5f5"/>
        </g>
        <g id="_-----skeleton-text-regular-3" data-name="-----skeleton-text-regular" transform="translate(6 51)">
          <rect id="_---skeleton-text-regular-3" data-name="//---skeleton-text-regular" width="68" height="5" rx="2.5" fill="#f0f0f0"/>
        </g>
        <g id="_-----skeleton-text-regular-4" data-name="-----skeleton-text-regular" transform="translate(6 43)">
          <rect id="_---skeleton-text-regular-4" data-name="//---skeleton-text-regular" width="19" height="5" rx="2.5" fill="#f0f0f0"/>
        </g>
      </g>
      <g id="_-----skeleton-wall-view-3" data-name="-----skeleton-wall-view" transform="translate(0 259)">
        <rect id="background-7" data-name="background" width="80" height="60" rx="4" fill="#fbfbfb"/>
        <path id="background-8" data-name="background" d="M4,0H76a4,4,0,0,1,4,4V40a0,0,0,0,1,0,0H0a0,0,0,0,1,0,0V4A4,4,0,0,1,4,0Z" fill="#00bcd5"/>
        <g id="_-----skeleton-icon-3" data-name="-----skeleton-icon" transform="translate(34 12)">
          <rect id="_---skeleton-icon-3" data-name="//---skeleton-icon" width="12" height="16" rx="3" fill="#f5f5f5"/>
        </g>
        <g id="_-----skeleton-text-regular-5" data-name="-----skeleton-text-regular" transform="translate(6 51)">
          <rect id="_---skeleton-text-regular-5" data-name="//---skeleton-text-regular" width="68" height="5" rx="2.5" fill="#f0f0f0"/>
        </g>
        <g id="_-----skeleton-text-regular-6" data-name="-----skeleton-text-regular" transform="translate(6 43)">
          <rect id="_---skeleton-text-regular-6" data-name="//---skeleton-text-regular" width="19" height="5" rx="2.5" fill="#f0f0f0"/>
        </g>
      </g>
    </g>
  </g>
</svg>
